<?xml version="1.0" encoding="utf-8"?>
<!-- Generator: Adobe Illustrator 25.0.1, SVG Export Plug-In . SVG Version: 6.00 Build 0)  -->
<svg version="1.1" id="Layer_1" xmlns="http://www.w3.org/2000/svg" xmlns:xlink="http://www.w3.org/1999/xlink" x="0px" y="0px"
	 viewBox="0 0 396.8504 141.7323" style="enable-background:new 0 0 396.8504 141.7323;" xml:space="preserve">
<style type="text/css">
	.st0{fill:#FDB614;}
</style>
<g>
	<g>
		<g>
			<path class="st0" d="M95.1829,70.8791h-5.6194c-0.2113,0-0.3881-0.1795-0.3836-0.3907
				c0.2058-9.6249,7.9973-17.4164,17.6222-17.6222c0.2112-0.0045,0.3907,0.1723,0.3907,0.3835v5.6176
				c0,0.1968-0.1571,0.3501-0.3538,0.356c-2.9321,0.0878-5.5959,1.2636-7.6005,3.1365c-2.1996,2.0551-3.6055,4.9494-3.7015,8.1669
				C95.5312,70.7226,95.3789,70.8791,95.1829,70.8791z"/>
			<path class="st0" d="M89.1757,88.4825v-5.6192c0-0.1963,0.1567-0.3489,0.3529-0.3547c3.1431-0.0934,5.9739-1.4307,8.0169-3.5365
				c1.9605-2.0208,3.1957-4.7492,3.2855-7.7653c0.0059-0.1965,0.159-0.3535,0.3555-0.3535h5.6184
				c0.2113,0,0.3881,0.1795,0.3836,0.3907c-0.2058,9.6249-7.9973,17.4164-17.6222,17.6222
				C89.3552,88.8706,89.1757,88.6937,89.1757,88.4825z"/>
			<path class="st0" d="M82.9498,74.055h-5.6105c-0.2047,0-0.3707-0.1659-0.3707-0.3707v-5.6105
				c0-0.2047,0.1659-0.3707,0.3707-0.3707h5.6105c0.2047,0,0.3707,0.1659,0.3707,0.3707v5.6105
				C83.3204,73.889,83.1545,74.055,82.9498,74.055z"/>
			<path class="st0" d="M66.0663,67.7031h5.7804c0.1583,0,0.2934-0.1037,0.3401-0.2549c1.4362-4.651,5.7006-8.0726,10.78-8.2249
				c0.1966-0.0059,0.3536-0.1591,0.3536-0.3558v-5.6178c0-0.2113-0.1795-0.3881-0.3908-0.3836
				c-8.5142,0.1823-15.5772,6.3065-17.2388,14.3797C65.643,67.4786,65.8288,67.7031,66.0663,67.7031z M71.8541,74.055H66.071
				c-0.2378,0-0.4236,0.2249-0.3753,0.4577c1.6715,8.0602,8.729,14.1713,17.234,14.3533c0.2112,0.0045,0.3907-0.1723,0.3907-0.3836
				v-5.6178c0-0.1967-0.1571-0.3499-0.3537-0.3558c-5.0704-0.152-9.3291-3.5615-10.7728-8.1997
				C72.147,74.1583,72.0121,74.055,71.8541,74.055z"/>
		</g>
	</g>
	<g>
		<path class="st0" d="M159.6242,68.2475c0.746-1.4487,1.7598-2.5624,3.0414-3.3429c1.2817-0.7796,2.7131-1.1698,4.2953-1.1698
			c1.3815,0,2.5902,0.2789,3.6271,0.8357c1.0359,0.5573,1.8654,1.2591,2.4894,2.1059v-2.3741c0-0.1472,0.1193-0.2665,0.2665-0.2665
			h4.1809c0.1472,0,0.2665,0.1193,0.2665,0.2665v17.9845c0,0.1472-0.1193,0.2665-0.2665,0.2665h-4.1809
			c-0.1472,0-0.2665-0.1193-0.2665-0.2665v-2.4409c-0.601,0.8689-1.4314,1.5874-2.4894,2.1558
			c-1.0589,0.5683-2.2792,0.8525-3.6607,0.8525c-1.5601,0-2.98-0.4013-4.2617-1.2034c-1.2817-0.8021-2.2955-1.9331-3.0414-3.3928
			c-0.7469-1.4593-1.1194-3.136-1.1194-5.0302C158.5048,71.3557,158.8773,69.6962,159.6242,68.2475z M172.4092,70.3697
			c-0.4455-0.8132-1.0474-1.4372-1.8049-1.8716c-0.7575-0.4344-1.5706-0.6519-2.4395-0.6519c-0.8698,0-1.6714,0.2122-2.4068,0.6351
			c-0.7354,0.4234-1.3316,1.0417-1.7886,1.8553c-0.457,0.8136-0.6855,1.7771-0.6855,2.8912c0,1.1141,0.2285,2.0891,0.6855,2.9243
			c0.457,0.8357,1.058,1.4766,1.8049,1.922c0.7469,0.4459,1.5428,0.6687,2.3905,0.6687c0.8688,0,1.682-0.2175,2.4395-0.6519
			c0.7575-0.4344,1.3594-1.058,1.8049-1.8716c0.4455-0.8132,0.6682-1.7886,0.6682-2.9248
			C173.0774,72.1578,172.8547,71.1833,172.4092,70.3697z"/>
		<path class="st0" d="M185.0283,82.0353c-1.2029-0.5458-2.1553-1.2869-2.8571-2.223c-0.6576-0.8771-1.037-1.8419-1.1367-2.8951
			c-0.0067-0.0708-0.0005-0.2135,0.1767-0.2135l4.307,0.0001c0.1246,0,0.223,0.0914,0.2481,0.2135
			c0.1272,0.6188,0.4668,1.1377,1.0171,1.5582c0.6125,0.468,1.3758,0.7018,2.2897,0.7018c0.8909,0,1.5879-0.1781,2.0891-0.5348
			c0.5011-0.3562,0.7527-0.8132,0.7527-1.3705c0-0.6015-0.3072-1.0527-0.9197-1.3537c-0.6135-0.301-1.5879-0.6293-2.9243-0.986
			c-1.3825-0.3341-2.5125-0.6797-3.3928-1.0364c-0.8804-0.3562-1.6378-0.9024-2.2734-1.6378
			c-0.6346-0.7354-0.9524-1.7266-0.9524-2.9747c0-1.0249,0.2957-1.9604,0.8861-2.8077c0.5904-0.8468,1.4372-1.515,2.5403-2.0055
			c1.1031-0.4896,2.4011-0.7354,3.894-0.7354c2.2062,0,3.966,0.5515,5.2812,1.6546c1.2415,1.042,1.9571,2.4267,2.1447,4.1551
			c0.0173,0.1595-0.1145,0.3072-0.275,0.3072h-3.9534c-0.129,0-0.2304-0.0988-0.2516-0.226
			c-0.1048-0.6303-0.4015-1.14-0.8905-1.5289c-0.5463-0.4344-1.2759-0.6519-2.1889-0.6519c-0.8477,0-1.4996,0.1565-1.9556,0.468
			c-0.457,0.3125-0.6855,0.7469-0.6855,1.3037c0,0.624,0.312,1.0978,0.9361,1.4204c0.624,0.3235,1.5927,0.6519,2.908,0.986
			c1.3373,0.3346,2.4404,0.6802,3.3093,1.0364c0.8688,0.3567,1.6206,0.9082,2.2561,1.6546c0.6346,0.7469,0.9639,1.7329,0.986,2.9579
			c0,1.0695-0.2957,2.0281-0.8861,2.8744c-0.5904,0.8472-1.4372,1.5102-2.5403,1.9892c-1.1031,0.4786-2.3896,0.7186-3.8604,0.7186
			C187.5907,82.8542,186.2322,82.5811,185.0283,82.0353z"/>
		<path class="st0" d="M209.9608,67.6132v-3.311c0-0.1472-0.1193-0.2665-0.2665-0.2665h-3.878v-4.5804
			c0-0.1472-0.1193-0.2665-0.2665-0.2665H201.37c-0.1472,0-0.2665,0.1193-0.2665,0.2665v4.5804h-1.9398
			c-0.1472,0-0.2665,0.1193-0.2665,0.2665v3.311c0,0.1472,0.1193,0.2665,0.2665,0.2665h1.9398v8.9242
			c0,3.8331,1.972,5.7493,5.9159,5.7493h2.6749c0.1472,0,0.2665-0.1193,0.2665-0.2665v-3.4114c0-0.1472-0.1193-0.2665-0.2665-0.2665
			h-1.9061c-0.7133,0-1.2201-0.1387-1.5207-0.4177c-0.3016-0.2784-0.4512-0.7296-0.4512-1.3537v-8.9578h3.878
			C209.8415,67.8797,209.9608,67.7604,209.9608,67.6132z"/>
		<path class="st0" d="M218.393,64.3022v17.9845c0,0.1472-0.1193,0.2665-0.2665,0.2665h-4.1463
			c-0.1472,0-0.2665-0.1193-0.2665-0.2665V64.3022c0-0.1472,0.1193-0.2665,0.2665-0.2665h4.1463
			C218.2737,64.0358,218.393,64.1551,218.393,64.3022z"/>
		<path class="st0" d="M223.2326,68.2638c0.7796-1.4372,1.8606-2.5513,3.2421-3.3424c1.3815-0.7906,2.9637-1.1866,4.7465-1.1866
			c2.2955,0,4.1954,0.5741,5.6989,1.7214c1.4183,1.0825,2.3954,2.5749,2.9321,4.4786c0.0484,0.1716-0.0863,0.3513-0.2647,0.3513
			l-4.5112,0c-0.1079,0-0.201-0.0705-0.2392-0.1714c-0.273-0.7209-0.7039-1.2931-1.2926-1.717
			c-0.6356-0.4565-1.4209-0.6855-2.3569-0.6855c-1.3364,0-2.3953,0.4848-3.1749,1.454c-0.7805,0.9697-1.1703,2.3459-1.1703,4.1282
			c0,1.7607,0.3898,3.1254,1.1703,4.0946c0.7796,0.9692,1.8385,1.454,3.1749,1.454c1.8292,0,3.0452-0.7897,3.6486-2.3692
			c0.0381-0.0997,0.1311-0.1711,0.2378-0.1711l4.5104,0c0.1793,0,0.3146,0.1806,0.2643,0.3527
			c-0.5382,1.8405-1.5198,3.3161-2.9448,4.4269c-1.5159,1.1813-3.4091,1.7718-5.6825,1.7718c-1.7828,0-3.365-0.3955-4.7465-1.1866
			c-1.3815-0.7906-2.4625-1.9052-3.2421-3.3424c-0.7796-1.4377-1.1693-3.1139-1.1693-5.0307
			C222.0632,71.3782,222.453,69.701,223.2326,68.2638z"/>
		<path class="st0" d="M246.5251,81.9518c-1.3028-0.5568-2.3339-1.3589-3.0914-2.4068c-0.7057-0.9753-1.0931-2.1157-1.1606-3.4202
			c-0.008-0.1542,0.1214-0.2899,0.2758-0.2899h4.499c0.1321,0,0.2363,0.1046,0.2522,0.2357
			c0.1026,0.8475,0.435,1.5268,0.9973,2.0372c0.6125,0.5573,1.4535,0.8357,2.523,0.8357c1.0916,0,1.9499-0.2616,2.5739-0.7858
			c0.624-0.5232,0.9361-1.2082,0.9361-2.0555c0-0.6903-0.2122-1.2586-0.6355-1.7046c-0.4234-0.4455-0.9524-0.7964-1.587-1.0532
			c-0.6355-0.2559-1.5101-0.54-2.6238-0.8521c-1.5159-0.4455-2.7467-0.8856-3.6943-1.3205
			c-0.9466-0.4344-1.7598-1.0916-2.4395-1.9719c-0.6797-0.8799-1.0196-2.0555-1.0196-3.5263c0-1.3815,0.3456-2.5849,1.0359-3.6098
			c0.6903-1.0249,1.6599-1.8102,2.908-2.3564c1.2481-0.5458,2.6747-0.8189,4.2789-0.8189c2.4059,0,4.3615,0.5847,5.8659,1.7545
			c1.4294,1.1115,2.2495,2.6408,2.462,4.587c0.0175,0.1602-0.1148,0.3097-0.2759,0.3097h-4.615
			c-0.1314,0-0.2329-0.1017-0.2502-0.232c-0.0927-0.6988-0.4246-1.2844-0.9978-1.7568c-0.6346-0.5232-1.4765-0.7853-2.523-0.7853
			c-0.914,0-1.6436,0.2338-2.1899,0.7018c-0.5463,0.468-0.8189,1.1482-0.8189,2.0391c0,0.624,0.2055,1.142,0.6183,1.5543
			c0.4119,0.4123,0.9245,0.7464,1.538,1.0028c0.6125,0.2563,1.4756,0.5511,2.5902,0.8856c1.515,0.4459,2.7515,0.8914,3.7106,1.3369
			c0.9572,0.4459,1.7819,1.1146,2.4731,2.0055c0.6903,0.8914,1.0359,2.0612,1.0359,3.5095c0,1.2486-0.3226,2.4069-0.9687,3.4763
			c-0.6471,1.0695-1.5937,1.922-2.8417,2.5571c-1.2481,0.6351-2.7294,0.9524-4.445,0.9524
			C249.2939,82.787,247.8288,82.5091,246.5251,81.9518z"/>
		<path class="st0" d="M262.7559,68.2638c0.7796-1.4372,1.8596-2.5513,3.2421-3.3424c1.3815-0.7906,2.9637-1.1866,4.7465-1.1866
			c2.2945,0,4.1945,0.5741,5.6989,1.7214c1.4183,1.0825,2.3954,2.575,2.9322,4.4787c0.0484,0.1716-0.0863,0.3513-0.2646,0.3513
			l-4.5112,0c-0.1079,0-0.2011-0.0705-0.2393-0.1715c-0.273-0.7209-0.7039-1.293-1.2935-1.7169
			c-0.6346-0.4565-1.4199-0.6855-2.356-0.6855c-1.3373,0-2.3953,0.4848-3.1758,1.454c-0.7796,0.9697-1.1693,2.3459-1.1693,4.1282
			c0,1.7607,0.3898,3.1254,1.1693,4.0946c0.7805,0.9692,1.8385,1.454,3.1758,1.454c1.8284,0,3.0452-0.7898,3.6487-2.3693
			c0.0381-0.0996,0.131-0.171,0.2376-0.171h4.5104c0.1793,0,0.3146,0.1807,0.2643,0.3528
			c-0.5382,1.8405-1.5199,3.3161-2.9458,4.4269c-1.515,1.1813-3.4091,1.7718-5.6816,1.7718c-1.7828,0-3.365-0.3955-4.7465-1.1866
			c-1.3825-0.7906-2.4625-1.9052-3.2421-3.3424c-0.7805-1.4377-1.1703-3.1139-1.1703-5.0307
			C261.5856,71.3782,261.9754,69.701,262.7559,68.2638z"/>
		<path class="st0" d="M282.3438,68.2475c0.746-1.4487,1.7598-2.5624,3.0414-3.3429c1.2807-0.7796,2.7122-1.1698,4.2953-1.1698
			c1.3815,0,2.5902,0.2789,3.6261,0.8357c1.0359,0.5573,1.8663,1.2591,2.4904,2.1059v-2.3741c0-0.1472,0.1193-0.2665,0.2665-0.2665
			h4.1799c0.1472,0,0.2665,0.1193,0.2665,0.2665v17.9845c0,0.1472-0.1193,0.2665-0.2665,0.2665h-4.1799
			c-0.1472,0-0.2665-0.1193-0.2665-0.2665v-2.4409c-0.602,0.8689-1.4324,1.5874-2.4904,2.1558
			c-1.0589,0.5683-2.2782,0.8525-3.6597,0.8525c-1.5601,0-2.981-0.4013-4.2617-1.2034c-1.2816-0.8021-2.2955-1.9331-3.0414-3.3928
			c-0.7469-1.4593-1.1204-3.136-1.1204-5.0302C281.2234,71.3557,281.5969,69.6962,282.3438,68.2475z M295.1288,70.3697
			c-0.4464-0.8132-1.0484-1.4372-1.8049-1.8716c-0.7584-0.4344-1.5716-0.6519-2.4404-0.6519c-0.8689,0-1.6714,0.2122-2.4069,0.6351
			c-0.7354,0.4234-1.3316,1.0417-1.7876,1.8553c-0.457,0.8136-0.6855,1.7771-0.6855,2.8912c0,1.1141,0.2285,2.0891,0.6855,2.9243
			c0.456,0.8357,1.058,1.4766,1.8049,1.922c0.746,0.4459,1.5428,0.6687,2.3896,0.6687c0.8688,0,1.682-0.2175,2.4404-0.6519
			c0.7565-0.4344,1.3585-1.058,1.8049-1.8716c0.4455-0.8132,0.6682-1.7886,0.6682-2.9248
			C295.797,72.1578,295.5742,71.1833,295.1288,70.3697z"/>
		<path class="st0" d="M330.7531,74.6981H317.496c0.1114,1.3373,0.5789,2.3848,1.4036,3.1422
			c0.8247,0.758,1.8385,1.1362,3.0424,1.1362c1.6828,0,2.8956-0.6996,3.6385-2.1001c0.0439-0.0828,0.1285-0.1392,0.2223-0.1392
			h4.5139c0.1854,0,0.3242,0.192,0.2634,0.3672c-0.561,1.6178-1.5468,2.9605-2.9564,4.0284
			c-1.515,1.1477-3.3755,1.7214-5.5818,1.7214c-1.7828,0-3.3813-0.3955-4.7964-1.1866c-1.4151-0.7906-2.5182-1.9105-3.3093-3.3592
			c-0.7911-1.4482-1.1866-3.1197-1.1866-5.0139c0-1.9163,0.3898-3.5983,1.1703-5.047c0.7795-1.4487,1.8711-2.5624,3.2757-3.3429
			c1.4036-0.7796,3.0193-1.1698,4.8463-1.1698c1.7598,0,3.3372,0.3792,4.7292,1.1367c1.393,0.7575,2.4741,1.8332,3.2431,3.2253
			c0.768,1.393,1.153,2.9915,1.153,4.7964c0,0.5574-0.0374,1.0674-0.093,1.5324C331.0399,74.7123,330.7531,74.6981,330.7531,74.6981
			z M326.2025,71.5563c0.0629,0,0.1162-0.0577,0.1135-0.1205c-0.103-2.3637-1.9471-3.857-4.4077-3.857
			c-2.0631,0-3.9182,1.1314-4.3583,3.8429c-0.0108,0.0666,0.0427,0.1346,0.1102,0.1346L326.2025,71.5563z"/>
		<path class="st0" d="M156.0638,78.5796c-0.7133,0-1.2202-0.1387-1.5206-0.4176c-0.3015-0.2784-0.4512-0.7297-0.4512-1.3537
			V59.4554c0-0.1472-0.1193-0.2665-0.2665-0.2665h-4.1464c-0.1472,0-0.2665,0.1193-0.2665,0.2665V76.804
			c0,3.8329,1.972,5.7492,5.9158,5.7492h1.1789c0.1472,0,0.2665-0.1193,0.2665-0.2665v-3.4407c0-0.1472-0.1193-0.2665-0.2665-0.2665
			H156.0638z"/>
		<path class="st0" d="M218.1265,59.1889h-4.1463c-0.1472,0-0.2665-0.1193-0.2665-0.2665v-4.1463
			c0-0.1472,0.1193-0.2665,0.2665-0.2665h4.1463c0.1472,0,0.2665,0.1193,0.2665,0.2665v4.1463
			C218.393,59.0696,218.2737,59.1889,218.1265,59.1889z"/>
		<path class="st0" d="M144.9556,72.2926v-3.1772c0-0.1472-0.1193-0.2665-0.2665-0.2665h-9.5559v3.7101h9.5559
			C144.8363,72.5591,144.9556,72.4398,144.9556,72.2926z M145.9579,62.7329v-3.2775c0-0.1472-0.1193-0.2665-0.2665-0.2665h-14.971
			c-0.1472,0-0.2665,0.1193-0.2665,0.2665v9.1271c0,0.1472,0.1193,0.2665,0.2665,0.2665h4.4128v-5.8496h10.5582
			C145.8386,62.9994,145.9579,62.8801,145.9579,62.7329z M130.7204,82.5532h14.971c0.1472,0,0.2665-0.1193,0.2665-0.2665v-3.2775
			c0-0.1472-0.1193-0.2665-0.2665-0.2665h-10.5582v-6.1837h-4.4128c-0.1472,0-0.2665,0.1193-0.2665,0.2665v9.4612
			C130.4539,82.4339,130.5732,82.5532,130.7204,82.5532z"/>
		<path class="st0" d="M310.9081,78.5796c-0.7133,0-1.2202-0.1387-1.5206-0.4176c-0.3015-0.2784-0.4512-0.7297-0.4512-1.3537
			V59.4554c0-0.1472-0.1193-0.2665-0.2665-0.2665h-4.1464c-0.1472,0-0.2665,0.1193-0.2665,0.2665V76.804
			c0,3.8329,1.972,5.7492,5.9158,5.7492h1.1789c0.1472,0,0.2665-0.1193,0.2665-0.2665v-3.4407c0-0.1472-0.1193-0.2665-0.2665-0.2665
			H310.9081z"/>
	</g>
</g>
</svg>
